<svg width="1310" height="65" viewBox="0 0 1310 65" fill="none" xmlns="http://www.w3.org/2000/svg">
<circle opacity="0.1" cx="1277.5" cy="32.5" r="32.5" fill="#EF443B"/>
<path fill-rule="evenodd" clip-rule="evenodd" d="M1274.29 26.2929C1274.68 25.9024 1275.32 25.9024 1275.71 26.2929L1281.71 32.2929C1282.1 32.6834 1282.1 33.3166 1281.71 33.7071L1275.71 39.7071C1275.32 40.0976 1274.68 40.0976 1274.29 39.7071C1273.9 39.3166 1273.9 38.6834 1274.29 38.2929L1279.59 33L1274.29 27.7071C1273.9 27.3166 1273.9 26.6834 1274.29 26.2929Z" fill="white"/>
<circle opacity="0.1" cx="32.5" cy="32.5" r="32.5" fill="#EF443B"/>
<path fill-rule="evenodd" clip-rule="evenodd" d="M36.7071 26.2929C37.0976 26.6834 37.0976 27.3166 36.7071 27.7071L31.4142 33L36.7071 38.2929C37.0976 38.6834 37.0976 39.3166 36.7071 39.7071C36.3166 40.0976 35.6834 40.0976 35.2929 39.7071L29.2929 33.7071C28.9024 33.3166 28.9024 32.6834 29.2929 32.2929L35.2929 26.2929C35.6834 25.9024 36.3166 25.9024 36.7071 26.2929Z" fill="white"/>
</svg>
