<svg width="102" height="18" viewBox="0 0 102 18" fill="none" xmlns="http://www.w3.org/2000/svg">
<path d="M92.9649 6.85352L92.5961 8.33222C93.0143 8.43644 94.3031 8.8616 94.5119 8.02478C94.7295 7.15232 93.3831 6.95774 92.9649 6.85352Z" fill="white"/>
<path d="M92.4102 9.07861L92.0034 10.7091C92.5054 10.8338 94.054 11.3309 94.2829 10.4112C94.5222 9.45211 92.9122 9.20389 92.4102 9.07861Z" fill="white"/>
<path d="M94.6321 2.45177C91.0166 1.55015 87.354 3.75119 86.4527 7.36775C85.5507 10.9838 87.7516 14.6466 91.3667 15.5482C94.9833 16.4498 98.6459 14.2491 99.5475 10.6329C100.449 7.01657 98.2485 3.35321 94.6321 2.45177ZM95.9753 8.03843C95.8779 8.69597 95.5136 9.01439 95.0295 9.12581C95.6939 9.47159 96.0321 10.0022 95.7099 10.922C95.3103 12.0641 94.3605 12.1606 93.0978 11.9216L92.7912 13.1499L92.0505 12.9654L92.3529 11.7534C92.1557 11.7046 91.9589 11.6536 91.7627 11.6004L91.4592 12.818L90.7194 12.6333L91.026 11.4028C90.853 11.3585 90.6773 11.3114 90.498 11.2665L89.5343 11.0261L89.9019 10.1784C89.9019 10.1784 90.4476 10.3237 90.4403 10.3129C90.65 10.3649 90.7428 10.2281 90.7796 10.1369L91.2639 8.19521C91.2911 8.20187 91.3176 8.20835 91.3421 8.21465C91.317 8.20479 91.2913 8.19656 91.2652 8.18999L91.6106 6.80381C91.6196 6.64649 91.5654 6.44813 91.2656 6.37325C91.2773 6.36533 90.7277 6.23951 90.7277 6.23951L90.9248 5.44841L91.9463 5.70347L91.9454 5.70725C92.099 5.74541 92.2572 5.78159 92.4185 5.81831L92.7219 4.60205L93.4621 4.78655L93.1647 5.97905C93.3635 6.02441 93.5634 6.07013 93.7582 6.11855L94.0536 4.93397L94.7941 5.11847L94.4908 6.33527C95.4257 6.65729 96.1095 7.14005 95.9753 8.03843Z" fill="white"/>
<path d="M42.52 2.52002H31.4767C30.9486 2.52002 30.52 2.93852 30.52 3.45386V14.5449C30.52 15.061 30.9486 15.48 31.4767 15.48H42.52C43.0485 15.48 43.48 15.061 43.48 14.5449V3.45386C43.48 2.93852 43.0485 2.52002 42.52 2.52002ZM34.3637 13.5637H32.4406V7.37912H34.3637V13.5637ZM33.4021 6.53348C33.2558 6.53348 33.1108 6.50464 32.9756 6.4486C32.8404 6.39256 32.7175 6.31042 32.614 6.20688C32.5106 6.10334 32.4285 5.98043 32.3726 5.84517C32.3166 5.7099 32.2879 5.56494 32.2879 5.41856C32.2879 5.12308 32.4053 4.8397 32.6143 4.63076C32.8232 4.42183 33.1066 4.30445 33.4021 4.30445C33.6975 4.30445 33.9809 4.42183 34.1899 4.63076C34.3988 4.8397 34.5162 5.12308 34.5162 5.41856C34.5162 5.7141 34.3988 5.99755 34.1899 6.20661C33.981 6.41567 33.6977 6.53324 33.4021 6.53348ZM41.563 13.5637H39.6429V10.5563C39.6429 9.83882 39.6289 8.91632 38.6437 8.91632C37.6433 8.91632 37.4908 9.6977 37.4908 10.5043V13.5639H35.5693V7.37912H37.4134V8.22368H37.4397C37.6964 7.73768 38.3235 7.22486 39.2588 7.22486C41.2039 7.22486 41.5632 8.50538 41.5632 10.1713V13.5637H41.563Z" fill="white"/>
<path d="M8.13418 12.6705C8.0089 12.8476 7.89028 12.9349 7.77688 12.9349C7.70128 12.9349 7.65826 12.8906 7.64458 12.8028C7.63918 12.7846 7.63918 12.7157 7.63918 12.5832V10.2864H7.07434V12.7531C7.07434 12.9736 7.09306 13.1223 7.1242 13.2168C7.18054 13.3748 7.30618 13.4488 7.48834 13.4488C7.69606 13.4488 7.90954 13.3233 8.134 13.0656V13.406H8.69974V10.2866H8.13418V12.6705Z" fill="white"/>
<path d="M5.02145 9.80856H5.68637V13.4058H6.31493V9.80856H6.99209V9.21924H5.02145V9.80856Z" fill="white"/>
<path d="M8.87057 7.08112C9.05471 7.08112 9.14291 6.93532 9.14291 6.64354V5.3173C9.14291 5.02588 9.05471 4.88062 8.87057 4.88062C8.68625 4.88062 8.59787 5.02588 8.59787 5.3173V6.64354C8.59805 6.93514 8.68625 7.08112 8.87057 7.08112Z" fill="white"/>
<path d="M10.3381 10.2483C10.1304 10.2483 9.93672 10.3621 9.75438 10.5867V9.21924H9.189V13.4059H9.75438V13.1031C9.94302 13.3369 10.1372 13.4487 10.3381 13.4487C10.5633 13.4487 10.7145 13.3303 10.7901 13.0982C10.8277 12.9659 10.847 12.7582 10.847 12.4697V11.2275C10.847 10.9323 10.8277 10.726 10.7901 10.6006C10.7143 10.3667 10.5633 10.2483 10.3381 10.2483ZM10.2818 12.514C10.2818 12.7957 10.1988 12.9346 10.0359 12.9346C9.94302 12.9346 9.8487 12.8903 9.7542 12.7958V10.8943C9.8487 10.8013 9.94284 10.757 10.0359 10.757C10.199 10.757 10.2818 10.9013 10.2818 11.1827V12.514Z" fill="white"/>
<path d="M12.1383 10.2483C11.8499 10.2483 11.6246 10.3547 11.4615 10.5683C11.3413 10.7258 11.2867 10.9696 11.2867 11.3027V12.3957C11.2867 12.7269 11.3483 12.9733 11.4683 13.129C11.6316 13.342 11.8566 13.4485 12.1525 13.4485C12.4477 13.4485 12.6794 13.3367 12.836 13.1107C12.905 13.0091 12.9501 12.8932 12.9679 12.7717C12.9729 12.715 12.98 12.5894 12.98 12.4076V12.3248H12.4031C12.4031 12.5516 12.3961 12.677 12.3908 12.7078C12.3586 12.8588 12.2773 12.9344 12.1383 12.9344C11.9443 12.9344 11.8499 12.7904 11.8499 12.5017V11.9488H12.9801V11.3026C12.9801 10.9692 12.9234 10.7257 12.8052 10.5682C12.647 10.3545 12.422 10.2483 12.1383 10.2483ZM12.415 11.4784H11.8499V11.1899C11.8499 10.9015 11.9443 10.7572 12.1333 10.7572C12.3203 10.7572 12.415 10.9015 12.415 11.1899V11.4784Z" fill="white"/>
<path d="M14.22 2.52002H3.77999C3.08699 2.52002 2.51999 3.08702 2.51999 3.78002V14.22C2.51999 14.913 3.08699 15.48 3.77999 15.48H14.22C14.913 15.48 15.48 14.913 15.48 14.22V3.78002C15.48 3.08702 14.913 2.52002 14.22 2.52002ZM10.1844 4.40462H10.7537V6.72518C10.7537 6.85946 10.7537 6.92912 10.7607 6.94748C10.7733 7.03604 10.818 7.08122 10.8947 7.08122C11.0088 7.08122 11.1288 6.99266 11.2554 6.81374V4.40462H11.8267V7.55642H11.2554V7.21262C11.028 7.47344 10.8111 7.60016 10.6029 7.60016C10.4189 7.60016 10.292 7.52546 10.235 7.36562C10.2035 7.2704 10.1844 7.11938 10.1844 6.8969V4.40462ZM8.02673 5.43206C8.02673 5.09528 8.08415 4.84886 8.20565 4.68956C8.36369 4.47428 8.58617 4.36646 8.87057 4.36646C9.15677 4.36646 9.37889 4.47428 9.53711 4.68956C9.65663 4.84886 9.71441 5.09528 9.71441 5.43206V6.53636C9.71441 6.87116 9.65681 7.11956 9.53711 7.27778C9.37889 7.49252 9.15695 7.60034 8.87057 7.60034C8.58599 7.60034 8.36351 7.49252 8.20565 7.27778C8.08415 7.11956 8.02673 6.87116 8.02673 6.53636V5.43206ZM6.49925 3.32678L6.94907 4.98764L7.38089 3.32678H8.02133L7.25957 5.84354V7.55642H6.62597V5.84354C6.56873 5.5397 6.44201 5.0951 6.23897 4.50524C6.10541 4.11284 5.96627 3.71864 5.83289 3.32678H6.49925ZM13.5131 13.5933C13.399 14.0906 12.9918 14.4574 12.5022 14.512C11.3423 14.6416 10.1685 14.6423 8.99999 14.6416C7.83125 14.6423 6.65747 14.6416 5.49773 14.512C5.00795 14.4573 4.60151 14.0904 4.48721 13.5933C4.32431 12.8848 4.32431 12.1115 4.32431 11.3825C4.32431 10.6528 4.32611 9.88004 4.48919 9.17138C4.60331 8.67422 5.00993 8.30756 5.49971 8.25284C6.65945 8.12288 7.83323 8.12252 9.00197 8.12288C10.1705 8.12252 11.3443 8.12288 12.5042 8.25284C12.9936 8.30756 13.4006 8.67422 13.5149 9.17138C13.6778 9.88022 13.6769 10.6528 13.6769 11.3825C13.6771 12.1115 13.6762 12.8848 13.5131 13.5933Z" fill="white"/>
<path d="M70.7647 2.52002H59.2353C59.0456 2.52002 58.8637 2.59538 58.7295 2.72953C58.5954 2.86368 58.52 3.04563 58.52 3.23534V14.7649C58.5201 14.9546 58.5955 15.1365 58.7296 15.2706C58.8637 15.4047 59.0457 15.48 59.2353 15.48H65.4423V10.4613H63.7533V8.50538H65.4423V7.06286C65.4423 5.38886 66.4647 4.47752 67.958 4.47752C68.6733 4.47752 69.288 4.53062 69.4673 4.55456V6.30398L68.4315 6.30452C67.6194 6.30452 67.4622 6.69044 67.4622 7.25672V8.50556H69.399L69.1469 10.4614H67.4622V15.48H70.7649C70.9546 15.48 71.1365 15.4046 71.2706 15.2704C71.4047 15.1363 71.48 14.9544 71.48 14.7647V3.23534C71.48 3.04563 71.4047 2.86368 71.2705 2.72953C71.1364 2.59538 70.9544 2.52002 70.7647 2.52002Z" fill="white"/>
</svg>
